<?xml version="1.0" standalone="no"?><!DOCTYPE svg PUBLIC "-//W3C//DTD SVG 1.1//EN" "http://www.w3.org/Graphics/SVG/1.1/DTD/svg11.dtd"><svg width="480px" height="784px" viewBox="0 0 480 784" version="1.1" xmlns="http://www.w3.org/2000/svg" xmlns:xlink="http://www.w3.org/1999/xlink">
    <g id="Page-1" stroke="none" stroke-width="1" fill="none" fill-rule="evenodd">
        <g id="分组-3">
            <g id="分组-2">
                <g id="分组">
                    <rect id="矩形" x="0" y="0" width="446.511628" height="783.991347"></rect>
                    <text id="戳-我-点-Star" font-family="PingFangSC-Semibold, PingFang SC" font-size="102" font-weight="500" fill="#000000" fill-opacity="0.65">
                        <tspan x="129.799892" y="324.868578">戳</tspan>
                        <tspan x="231.799892" y="324.868578" font-family="ArialHebrew-Bold, Arial Hebrew" font-weight="bold"></tspan>
                        <tspan x="129.799892" y="467.868578">我</tspan>
                        <tspan x="231.799892" y="467.868578" font-family="ArialHebrew-Bold, Arial Hebrew" font-weight="bold"></tspan>
                        <tspan x="129.799892" y="610.868578">点</tspan>
                        <tspan x="231.799892" y="610.868578" font-family="ArialHebrew-Bold, Arial Hebrew" font-weight="bold"></tspan>
                        <tspan x="129.799892" y="753.868578" font-family="LucidaGrande-Bold, Lucida Grande" font-weight="bold">Star</tspan>
                    </text>
                    <g id="111">
                        <polygon id="路径" fill="#959691" points="0 0 220.8 224.438626 249.6 224.438626 272.64 277.132912 480 487.910057 480 0"></polygon>
                        <path d="M244.21721,213.46065 C214.439973,195.151408 225.118706,175.267178 225.118706,175.267178 C231.279514,161.682902 228.19911,153.611086 228.19911,153.611086 C225.529427,140.617431 234.154558,149.082994 234.154558,149.082994 C242.163608,158.139178 238.467123,170.739086 238.467123,170.739086 C233.127756,191.017063 248.940496,199.482627 256.744186,202.041983" id="路径" fill="#FFFFFF"></path>
                        <path d="M217.678154,227.508893 C217.485316,227.706788 224.813168,230.477321 226.934388,228.300474 L253.738899,200.990936 C259.909721,196.241451 265.694867,194.658289 270.130146,195.054079 C253.931737,174.077188 241.78293,147.16344 273.215557,114.708626 C282.278953,105.605447 292.885054,101.251752 303.876832,100.855962 C305.033861,97.6896384 310.626169,86.2117164 326.438902,79.2853843 C326.438902,79.2853843 335.502297,84.0348692 340.708929,111.146512 C349.000972,115.895997 356.907338,122.228644 364.042352,129.352871 C370.984527,136.477099 377.15535,144.788697 381.783467,153.496086 C408.202301,158.641362 413.023256,167.942436 413.023256,167.942436 C406.08108,184.169843 394.896465,189.908804 392.003891,191.096175 C391.425377,202.574097 387.375775,213.260438 378.312379,222.561513 C346.686913,255.016327 320.460917,242.351033 300.020068,225.727836 C300.405744,231.268902 298.091686,239.18471 290.378158,247.100518 L267.816088,270.056362 C265.502029,272.431105 268.973117,280.742703 269.358793,280.544808 L217.678154,227.508893 Z" id="路径" fill="#FFFFFF"></path>
                    </g>
                </g>
            </g>
        </g>
    </g>
</svg>